<svg xmlns="http://www.w3.org/2000/svg" viewBox="25 0 230 220" role="img"><title>Illustrated starfish reference placeholder</title><defs>
 <radialGradient id="urchin"><stop stop-color="#92bfc4"/><stop offset=".55" stop-color="#41747c"/><stop offset="1" stop-color="#153f55"/></radialGradient>
 <linearGradient id="cucumber" x2="0.6" y2="1"><stop stop-color="#7fa6ac"/><stop offset=".4" stop-color="#477d87"/><stop offset="1" stop-color="#234e63"/></linearGradient>
 <linearGradient id="shell" x2=".6" y2="1"><stop stop-color="#d4edf0"/><stop offset=".55" stop-color="#8ebbc6"/><stop offset="1" stop-color="#4b7f97"/></linearGradient>
 <radialGradient id="star"><stop stop-color="#99d1ce"/><stop offset=".7" stop-color="#69aaa9"/><stop offset="1" stop-color="#397983"/></radialGradient>
</defs><ellipse cx="135" cy="159" rx="91" ry="39" fill="#1b4358" opacity=".14"/><path d="M138 15C147 12 150 67 163 75C180 83 228 62 232 74C236 88 186 105 184 118C182 135 213 178 202 185C190 193 159 151 143 151C126 152 100 199 88 193C75 187 103 140 97 128C90 112 41 104 45 89C48 75 101 96 113 84C126 72 128 18 138 15Z" fill="url(#star)" stroke="#458b97" stroke-width="2"/><path d="M139 34L140 117M216 79L140 117L194 174M95 178L140 117L64 92" fill="none" stroke="#b4e3df" stroke-width="4" stroke-linecap="round" opacity=".52"/><circle cx="142.61" cy="131.88" r="2.1" fill="#d1efea" opacity=".62"/><circle cx="146.02" cy="111.66" r="2.1" fill="#d1efea" opacity=".62"/><circle cx="151.60" cy="119.52" r="2.1" fill="#d1efea" opacity=".62"/><circle cx="121.78" cy="140.40" r="2.1" fill="#d1efea" opacity=".62"/><circle cx="121.68" cy="112.88" r="2.1" fill="#d1efea" opacity=".62"/><circle cx="135.71" cy="129.65" r="2.1" fill="#d1efea" opacity=".62"/><circle cx="123.77" cy="115.27" r="2.1" fill="#d1efea" opacity=".62"/><circle cx="108.70" cy="122.65" r="2.1" fill="#d1efea" opacity=".62"/><circle cx="130.50" cy="110.34" r="2.1" fill="#d1efea" opacity=".62"/><circle cx="139.45" cy="112.19" r="2.1" fill="#d1efea" opacity=".62"/><circle cx="149.64" cy="125.46" r="2.1" fill="#d1efea" opacity=".62"/><circle cx="119.79" cy="113.00" r="2.1" fill="#d1efea" opacity=".62"/><circle cx="156.02" cy="131.13" r="2.1" fill="#d1efea" opacity=".62"/><circle cx="147.44" cy="113.71" r="2.1" fill="#d1efea" opacity=".62"/><circle cx="126.87" cy="127.45" r="2.1" fill="#d1efea" opacity=".62"/><circle cx="147.04" cy="89.85" r="2.1" fill="#d1efea" opacity=".62"/><circle cx="128.77" cy="102.12" r="2.1" fill="#d1efea" opacity=".62"/><circle cx="146.54" cy="132.95" r="2.1" fill="#d1efea" opacity=".62"/><circle cx="140.98" cy="117.54" r="2.1" fill="#d1efea" opacity=".62"/><circle cx="159.03" cy="137.76" r="2.1" fill="#d1efea" opacity=".62"/><circle cx="139.57" cy="122.11" r="2.1" fill="#d1efea" opacity=".62"/><circle cx="141.22" cy="102.66" r="2.1" fill="#d1efea" opacity=".62"/><circle cx="155.46" cy="131.94" r="2.1" fill="#d1efea" opacity=".62"/><circle cx="140.68" cy="116.87" r="2.1" fill="#d1efea" opacity=".62"/><circle cx="158.18" cy="113.90" r="2.1" fill="#d1efea" opacity=".62"/><circle cx="138.94" cy="97.01" r="2.1" fill="#d1efea" opacity=".62"/><circle cx="130.33" cy="123.20" r="2.1" fill="#d1efea" opacity=".62"/><circle cx="139.62" cy="102.41" r="2.1" fill="#d1efea" opacity=".62"/><circle cx="137.51" cy="97.92" r="2.1" fill="#d1efea" opacity=".62"/><circle cx="146.56" cy="104.32" r="2.1" fill="#d1efea" opacity=".62"/><circle cx="135.31" cy="128.44" r="2.1" fill="#d1efea" opacity=".62"/><circle cx="117.88" cy="109.03" r="2.1" fill="#d1efea" opacity=".62"/><circle cx="138.60" cy="116.10" r="2.1" fill="#d1efea" opacity=".62"/><circle cx="154.37" cy="116.20" r="2.1" fill="#d1efea" opacity=".62"/><circle cx="159.84" cy="133.29" r="2.1" fill="#d1efea" opacity=".62"/><circle cx="140.10" cy="117.13" r="2.1" fill="#d1efea" opacity=".62"/></svg>